<?xml version="1.0" encoding="UTF-8"?>
<svg version="1.1" xmlns="http://www.w3.org/2000/svg" width="500" height="500">
<path d="M0 0 C0.71075684 0.17160645 1.42151367 0.34321289 2.15380859 0.52001953 C23.60395906 5.7688099 40.49897847 14.58168334 58 28 C58.77472656 28.54140625 59.54945313 29.0828125 60.34765625 29.640625 C60.89292969 30.08921875 61.43820312 30.5378125 62 31 C62 31.66 62 32.32 62 33 C62.66 33 63.32 33 64 33 C64 33.66 64 34.32 64 35 C64.5775 35.2475 65.155 35.495 65.75 35.75 C68.30109062 37.16727257 69.97973107 38.91182287 72 41 C72.07476562 40.11957031 72.14953125 39.23914063 72.2265625 38.33203125 C73.43433063 27.66341278 73.43433063 27.66341278 77 24.75 C81.44250865 22.15853662 83.77774513 21.64594882 89 22 C93.14884383 23.83321007 95.58061619 26.18462676 98 30 C98.6396525 33.26377136 98.69813187 36.4932379 98.75 39.8125 C98.77819824 40.74376709 98.80639648 41.67503418 98.83544922 42.63452148 C98.91237123 45.42306395 98.9604427 48.21070326 99 51 C99.01514648 51.77537109 99.03029297 52.55074219 99.04589844 53.34960938 C99.49545357 77.66944581 99.49545357 77.66944581 95 84 C91.22685647 86.57678095 88.44240306 88.12204129 83.88916016 88.14526367 C83.04132965 88.15164352 82.19349915 88.15802338 81.31997681 88.16459656 C80.40227509 88.16570938 79.48457336 88.1668222 78.5390625 88.16796875 C77.12589249 88.17296135 77.12589249 88.17296135 75.68417358 88.17805481 C73.68854257 88.18312343 71.69290307 88.18546316 69.69726562 88.18530273 C66.64438885 88.18748613 63.59187514 88.20563403 60.5390625 88.22460938 C58.60156374 88.22754392 56.66406326 88.22952831 54.7265625 88.23046875 C53.81290924 88.23765427 52.89925598 88.24483978 51.95791626 88.25224304 C51.10378143 88.24916641 50.24964661 88.24608978 49.36962891 88.24291992 C48.62065338 88.24434494 47.87167786 88.24576996 47.1000061 88.24723816 C43.2050065 87.78867162 41.3161859 86.36010061 38.75 83.4375 C36.53530212 79.08720059 36.15161592 75.79037069 37 71 C38.69630924 67.54455525 39.80225635 65.58861717 43.28125 63.87890625 C46.18366406 62.94062584 48.77415287 62.59463955 51.8125 62.375 C53.27623047 62.26285156 53.27623047 62.26285156 54.76953125 62.1484375 C55.50558594 62.09945312 56.24164063 62.05046875 57 62 C56.32517578 61.52433594 56.32517578 61.52433594 55.63671875 61.0390625 C51.3924684 57.96006725 47.55169428 54.67659253 43.75 51.0625 C38.96067448 46.60903181 34.00754256 43.42457142 28.23828125 40.375 C27.49964844 39.92125 26.76101563 39.4675 26 39 C26 38.34 26 37.68 26 37 C25.22849609 36.85498047 25.22849609 36.85498047 24.44140625 36.70703125 C21.79086426 35.93943429 19.41225103 34.81617574 16.92871094 33.62524414 C-7.5662818 22.08953214 -37.51364482 21.19607386 -63.15283203 29.71533203 C-77.90403698 35.0323478 -90.85990444 44.06413952 -102 55 C-102.5355249 55.50345947 -103.0710498 56.00691895 -103.62280273 56.52563477 C-108.09807642 60.8228553 -111.65945786 65.38405495 -115.0625 70.5625 C-115.58199219 71.35043945 -116.10148437 72.13837891 -116.63671875 72.95019531 C-131.25729931 95.64332003 -136.78966138 124.48723645 -131.75 151.0625 C-131.20162293 153.38353783 -130.61963938 155.69696264 -130 158 C-129.70996094 159.11632812 -129.41992188 160.23265625 -129.12109375 161.3828125 C-126.05994708 172.21850322 -121.09524613 181.57873049 -114.9375 190.9375 C-114.52612793 191.56446777 -114.11475586 192.19143555 -113.69091797 192.83740234 C-111.11889214 196.64473807 -108.35060187 199.82546479 -105 203 C-104.28457031 203.72703125 -103.56914062 204.4540625 -102.83203125 205.203125 C-102.16558594 205.87859375 -101.49914062 206.5540625 -100.8125 207.25 C-100.13832031 207.93578125 -99.46414062 208.6215625 -98.76953125 209.328125 C-97.09201005 211.07449111 -97.09201005 211.07449111 -95 212 C-95 212.66 -95 213.32 -95 214 C-94.01 214.3403125 -94.01 214.3403125 -93 214.6875 C-89.11341372 216.3878815 -85.36320183 218.39623084 -82 221 C-82 221.66 -82 222.32 -82 223 C-81.1440625 223.27070313 -80.288125 223.54140625 -79.40625 223.8203125 C-76.00052899 224.99981679 -72.78463381 226.39384503 -69.5 227.875 C-43.49406673 239.18763277 -16.56947651 239.45982647 10 230 C10.98226562 229.65324219 11.96453125 229.30648437 12.9765625 228.94921875 C22.33872743 225.3550367 31.02250843 220.06995454 38.78515625 213.72265625 C41 212 41 212 43 212 C43 211.34 43 210.68 43 210 C44.64453125 208.4140625 44.64453125 208.4140625 46.8125 206.625 C49.06250857 204.76433718 50.90350285 203.13127297 52.63671875 200.7734375 C53.08660156 200.18820312 53.53648437 199.60296875 54 199 C54.66 199 55.32 199 56 199 C56.37705078 197.92298828 56.37705078 197.92298828 56.76171875 196.82421875 C58.10834419 193.75289321 59.76459184 191.46342509 61.8125 188.8125 C74.18606304 172.098121 78.68947271 151.6882086 80.31689453 131.28125 C80.72341267 126.44877865 81.23980591 122.26310669 84.3125 118.3125 C87.71694182 115.6646008 90.16848127 114.95545435 94.5 115.1875 C99.49901443 116.34798549 102.14210112 117.71315167 105 122 C106.70409648 137.39844495 105.49521787 153.20678096 101 168 C100.81808105 168.64146973 100.63616211 169.28293945 100.44873047 169.94384766 C95.83737174 186.14335717 88.03944316 199.65229009 78 213 C77.10775118 214.30056058 76.21582215 215.60134062 75.32421875 216.90234375 C74.55722656 217.92457031 73.79023438 218.94679688 73 220 C72.34 220 71.68 220 71 220 C71 220.66 71 221.32 71 222 C70.34 222 69.68 222 69 222 C69 222.66 69 223.32 69 224 C68.34 224 67.68 224 67 224 C66.67 224.99 66.34 225.98 66 227 C65.34 227 64.68 227 64 227 C64 227.66 64 228.32 64 229 C62.3203125 230.5078125 62.3203125 230.5078125 60.125 232.125 C59.40570313 232.66382813 58.68640625 233.20265625 57.9453125 233.7578125 C56 235 56 235 54 235 C54 235.66 54 236.32 54 237 C52.07278717 238.49343502 50.17562953 239.81812069 48.125 241.125 C47.50294678 241.52170898 46.88089355 241.91841797 46.23999023 242.32714844 C17.41798357 260.14116805 -20.6311139 268.79735113 -54 261 C-74.30422212 256.03048983 -92.76275314 248.28762353 -109 235 C-109.99 234.34 -110.98 233.68 -112 233 C-112 232.34 -112 231.68 -112 231 C-112.804375 230.6596875 -112.804375 230.6596875 -113.625 230.3125 C-122.37559391 225.47664547 -128.32023683 216.96863457 -134.375 209.25 C-134.81618164 208.69505859 -135.25736328 208.14011719 -135.71191406 207.56835938 C-137.8523223 204.80038813 -139.53835289 202.52219643 -140 199 C-140.66 199 -141.32 199 -142 199 C-156.42773828 169.42850666 -164.8064794 138.97621915 -158 106 C-157.75507813 104.77925781 -157.51015625 103.55851562 -157.2578125 102.30078125 C-152.00076237 78.08851911 -140.68424888 56.39386713 -123 39 C-122.236875 38.236875 -121.47375 37.47375 -120.6875 36.6875 C-119.800625 35.800625 -118.91375 34.91375 -118 34 C-117.4946875 33.43667969 -116.989375 32.87335938 -116.46875 32.29296875 C-88.77723586 2.47600945 -38.67799755 -9.70975937 0 0 Z " fill="#FB4B10" transform="translate(278,90)"/>
<path d="M0 0 C3.37552286 2.17097943 4.57747231 5.51976021 5.8828125 9.2109375 C6.44348414 12.20890898 6.74183545 15.16583314 6.8828125 18.2109375 C7.71683594 18.43007812 8.55085938 18.64921875 9.41015625 18.875 C19.63121179 21.75515998 27.62774454 25.41474819 33.8828125 34.2109375 C35.54318008 39.19204023 35.68140097 44.17010029 33.7578125 49.0859375 C30.45187565 52.83266593 27.2119186 54.02439629 22.3203125 54.7109375 C17.83685386 54.05879806 16.88058521 52.56558792 13.8828125 49.2109375 C12.40968858 47.92937365 10.90726214 46.68100033 9.3828125 45.4609375 C8.650625 44.86796875 7.9184375 44.275 7.1640625 43.6640625 C0.44746991 39.38568503 -10.28139351 40.40391878 -17.8046875 41.9609375 C-21.12910934 42.84463142 -21.12910934 42.84463142 -22.30078125 45.01171875 C-23.16933529 47.35141218 -23.44902743 49.15810174 -23.4921875 51.6484375 C-23.53472656 52.76025391 -23.53472656 52.76025391 -23.578125 53.89453125 C-22.92210983 57.19128545 -21.43369758 58.81141255 -19.1171875 61.2109375 C-12.39940654 65.29607457 -4.55819725 66.92012872 3.0078125 68.7109375 C15.49304415 71.67531459 27.19873313 76.37481741 34.8828125 87.2109375 C40.35517647 100.09801684 39.87681445 110.30256567 34.8828125 123.2109375 C30.4244096 131.6665292 22.6572453 136.82670836 13.8828125 140.2109375 C11.15517407 140.81022478 8.68313918 141.0553638 5.8828125 141.2109375 C5.9446875 142.3659375 6.0065625 143.5209375 6.0703125 144.7109375 C6.04582232 149.31509052 5.24077791 153.21917583 2.8828125 157.2109375 C-0.14862926 159.9055524 -2.12558211 161.04566993 -6.1171875 161.7109375 C-9.97098308 161.06863824 -12.10742947 159.6734668 -15.1171875 157.2109375 C-17.26142733 153.89845666 -17.48838195 150.85262257 -17.7421875 146.9609375 C-17.81695312 145.88328125 -17.89171875 144.805625 -17.96875 143.6953125 C-18.01773438 142.87546875 -18.06671875 142.055625 -18.1171875 141.2109375 C-19.2721875 141.0459375 -20.4271875 140.8809375 -21.6171875 140.7109375 C-29.30958986 139.05639189 -36.21382104 134.85320447 -43.1171875 131.2109375 C-43.1171875 130.5509375 -43.1171875 129.8909375 -43.1171875 129.2109375 C-43.7771875 129.2109375 -44.4371875 129.2109375 -45.1171875 129.2109375 C-49.02260075 123.59690596 -50.10092957 119.03993769 -49.1171875 112.2109375 C-47.90377836 109.10261545 -47.31174655 108.33762712 -44.4296875 106.4609375 C-40.60327324 105.01700759 -38.17112906 104.62127327 -34.1171875 105.2109375 C-31.4296875 107.4609375 -31.4296875 107.4609375 -29.1171875 110.2109375 C-23.6708773 116.16068814 -17.3505562 118.1288438 -9.3828125 118.56640625 C-7.69041467 118.60881815 -5.99757169 118.63609609 -4.3046875 118.6484375 C-3.49249756 118.65842773 -2.68030762 118.66841797 -1.84350586 118.67871094 C3.0978985 118.60747249 6.63925895 117.99658308 10.8828125 115.2109375 C13.16943137 111.44908065 14.15114197 108.38175853 13.8828125 104.0234375 C12.69097672 99.47956359 11.72064191 98.75564171 7.8828125 96.2109375 C4.48283841 94.83006087 4.48283841 94.83006087 0.6953125 93.7734375 C0.00477783 93.56444824 -0.68575684 93.35545898 -1.3972168 93.14013672 C-5.17092376 92.01220684 -8.96099387 90.9851992 -12.78125 90.02734375 C-25.52320402 86.79616245 -36.91798416 82.10963285 -45.1171875 71.2109375 C-46.53017948 68.27171725 -47.40475995 65.38615337 -48.1171875 62.2109375 C-48.3440625 61.3859375 -48.5709375 60.5609375 -48.8046875 59.7109375 C-50.1490353 48.95615511 -48.00052979 39.34026175 -42.1171875 30.2109375 C-41.4571875 30.2109375 -40.7971875 30.2109375 -40.1171875 30.2109375 C-40.1171875 29.5509375 -40.1171875 28.8909375 -40.1171875 28.2109375 C-39.4571875 28.2109375 -38.7971875 28.2109375 -38.1171875 28.2109375 C-38.1171875 27.5509375 -38.1171875 26.8909375 -38.1171875 26.2109375 C-31.23322618 22.049151 -25.13671171 19.2199015 -17.1171875 18.2109375 C-17.29765625 17.6540625 -17.478125 17.0971875 -17.6640625 16.5234375 C-18.19477641 13.81496652 -17.91035331 11.910307 -17.3671875 9.2109375 C-17.20734375 8.3653125 -17.0475 7.5196875 -16.8828125 6.6484375 C-16.03276327 3.94215832 -15.03316846 2.29433427 -13.1171875 0.2109375 C-8.78812593 -1.23208302 -4.30715478 -1.60524957 0 0 Z " fill="#FB4B10" transform="translate(256.1171875,139.7890625)"/>
<path d="M0 0 C2.1875 1.625 2.1875 1.625 4.1875 4.625 C4.66740371 8.96147446 4.5681684 13.32736729 4.5625 17.6875 C4.56088867 18.95142578 4.55927734 20.21535156 4.55761719 21.51757812 C4.36801857 36.09808366 1.22604738 48.9566002 -3.8125 62.625 C-5.8125 59.625 -5.8125 59.625 -5.6875 57 C-4.95821206 54.18703223 -4.13499349 52.13439682 -2.875 49.5625 C3.15537839 36.2344898 1.79323293 19.93881806 2.1875 5.625 C1.548125 5.50125 0.90875 5.3775 0.25 5.25 C-0.7709375 4.940625 -0.7709375 4.940625 -1.8125 4.625 C-2.1425 3.965 -2.4725 3.305 -2.8125 2.625 C-3.4725 2.295 -4.1325 1.965 -4.8125 1.625 C-4.8125 0.965 -4.8125 0.305 -4.8125 -0.375 C-7.1225 0.285 -9.4325 0.945 -11.8125 1.625 C-11.4825 3.605 -11.1525 5.585 -10.8125 7.625 C-11.8025 8.12 -11.8025 8.12 -12.8125 8.625 C-12.8125 7.965 -12.8125 7.305 -12.8125 6.625 C-14.1325 6.955 -15.4525 7.285 -16.8125 7.625 C-16.750625 8.759375 -16.68875 9.89375 -16.625 11.0625 C-16.625 15.90655947 -17.31434557 20.55061024 -18.125 25.3125 C-18.30156128 26.39905884 -18.30156128 26.39905884 -18.48168945 27.50756836 C-19.28532214 31.9915611 -20.55463022 35.60890109 -22.8125 39.625 C-23.88045593 36.42113222 -23.77570041 35.75012397 -23 32.625 C-21.6639605 26.57247205 -21.12687763 20.48035855 -20.59838867 14.31445312 C-20.13677169 9.36228665 -19.64983966 4.98729385 -16.5 0.9375 C-11.14660329 -3.226253 -5.99212719 -2.9294844 0 0 Z " fill="#DC6740" transform="translate(378.8125,207.375)"/>
<path d="M0 0 C0.66 0 1.32 0 2 0 C2.12549872 7.40442444 2.12549872 7.40442444 1.5065918 10.34155273 C-0.9579508 23.27475962 0.81089895 37.387249 4 50 C4.56494025 52.47861173 5.12755746 54.95775446 5.6875 57.4375 C6.1227192 59.29220335 6.55930714 61.14658961 7 63 C4 61 4 61 3.26953125 58.8359375 C3.04330078 57.61777344 3.04330078 57.61777344 2.8125 56.375 C2.65394531 55.55773437 2.49539062 54.74046875 2.33203125 53.8984375 C2.22246094 53.27195313 2.11289063 52.64546875 2 52 C1.34 52 0.68 52 0 52 C-1.6059324 42.37874431 -2.21519304 32.93852429 -2.25 23.1875 C-2.25902344 22.15117432 -2.26804688 21.11484863 -2.27734375 20.04711914 C-2.25105981 13.16894038 -1.4566818 6.72014763 0 0 Z " fill="#D46549" transform="translate(144,198)"/>
<path d="M0 0 C0 0.33 0 0.66 0 1 C-1.01835937 0.99476318 -2.03671875 0.98952637 -3.0859375 0.98413086 C-6.89533597 0.96591264 -10.70473066 0.95450699 -14.51416016 0.94506836 C-16.15707041 0.94006637 -17.79997627 0.93326267 -19.44287109 0.92456055 C-21.81609181 0.9123126 -24.18925323 0.90673021 -26.5625 0.90234375 C-27.28679199 0.89718246 -28.01108398 0.89202118 -28.75732422 0.88670349 C-37.82148009 0.74032315 -37.82148009 0.74032315 -46 4 C-48.58885171 4.29991069 -51.09149082 4.50865225 -53.6875 4.625 C-54.38939453 4.66367188 -55.09128906 4.70234375 -55.81445312 4.7421875 C-57.54254655 4.8362334 -59.27123675 4.9191968 -61 5 C-61.33 5.99 -61.66 6.98 -62 8 C-64.64 8 -67.28 8 -70 8 C-69 6 -69 6 -65.52734375 4.81640625 C-64.00049473 4.38725528 -62.47023931 3.97011345 -60.9375 3.5625 C-60.1218457 3.34440674 -59.30619141 3.12631348 -58.46582031 2.90161133 C-55.98122602 2.25057435 -53.49233549 1.62068691 -51 1 C-50.3188916 0.82758789 -49.6377832 0.65517578 -48.93603516 0.47753906 C-33.06367942 -3.41270456 -15.9745503 -3.37575403 0 0 Z " fill="#DE866D" transform="translate(275,89)"/>
<path d="M0 0 C0.33 0 0.66 0 1 0 C1.37624274 4.7030342 1.42340877 8.1043276 -0.625 12.4375 C-3.37633748 15.40604834 -5.12894214 15.99352496 -9 17 C-9.86625 17.53625 -10.7325 18.0725 -11.625 18.625 C-16.63768181 20.6672037 -21.6497185 20.57377671 -27 20 C-29.2421875 19.04296875 -29.2421875 19.04296875 -31 18 C-31.66 17.67 -32.32 17.34 -33 17 C-33 16.34 -33 15.68 -33 15 C-34.423125 15.061875 -34.423125 15.061875 -35.875 15.125 C-39 15 -39 15 -41 13 C-43.58354218 12.83312552 -43.58354218 12.83312552 -46 13 C-45.67 11.02 -45.34 9.04 -45 7 C-44.401875 7.5775 -43.80375 8.155 -43.1875 8.75 C-35.62603724 14.08750313 -28.27906539 15.37127813 -19.1875 15.4375 C-17.96909424 15.45248535 -17.96909424 15.45248535 -16.72607422 15.46777344 C-11.79118099 15.39662153 -8.22747356 14.80314016 -4 12 C-1.90544829 8.09980027 -0.66224392 4.37080987 0 0 Z " fill="#E34B1D" transform="translate(271,243)"/>
<path d="M0 0 C3.39371861 2.17564119 4.60380125 5.48627124 5.8828125 9.20703125 C6.45530929 12.53792164 6.74448358 15.83180553 6.8828125 19.20703125 C6.2228125 19.20703125 5.5628125 19.20703125 4.8828125 19.20703125 C2.51438064 16.83859939 2.60010209 16.12671392 2.3828125 12.89453125 C2.11845723 9.00189993 1.43315238 7.08288095 -0.1171875 3.20703125 C-4.0771875 2.87703125 -8.0371875 2.54703125 -12.1171875 2.20703125 C-12.1171875 3.85703125 -12.1171875 5.50703125 -12.1171875 7.20703125 C-12.7771875 7.20703125 -13.4371875 7.20703125 -14.1171875 7.20703125 C-14.4471875 11.49703125 -14.7771875 15.78703125 -15.1171875 20.20703125 C-17.7571875 20.20703125 -20.3971875 20.20703125 -23.1171875 20.20703125 C-19.3671875 18.20703125 -19.3671875 18.20703125 -17.1171875 18.20703125 C-17.29765625 17.65015625 -17.478125 17.09328125 -17.6640625 16.51953125 C-18.19477641 13.81106027 -17.91035331 11.90640075 -17.3671875 9.20703125 C-17.12742188 7.93859375 -17.12742188 7.93859375 -16.8828125 6.64453125 C-16.03276327 3.93825207 -15.03316846 2.29042802 -13.1171875 0.20703125 C-8.78860871 -1.23582835 -4.30480135 -1.6123149 0 0 Z " fill="#E37356" transform="translate(256.1171875,139.79296875)"/>
<path d="M0 0 C2.475 0.495 2.475 0.495 5 1 C5 4.3 5 7.6 5 11 C6.32 10.34 7.64 9.68 9 9 C10.5 10.375 10.5 10.375 12 12 C12 12.66 12 13.32 12 14 C11.01 14 10.02 14 9 14 C9.33 14.66 9.66 15.32 10 16 C14.27452603 16.19881516 17.08091821 15.63295075 21 14 C21.66 14.33 22.32 14.66 23 15 C23.33 12.69 23.66 10.38 24 8 C24.66 8.66 25.32 9.32 26 10 C25.9006627 13.67548019 25.03000948 14.96614315 22.5625 17.75 C19.80168276 20.17413221 18.84820979 20.90361252 15.25 21.3125 C11.14232771 20.91753151 9.17073386 19.5942368 6 17 C3.85576017 13.68751916 3.62880555 10.64168507 3.375 6.75 C3.30023438 5.67234375 3.22546875 4.5946875 3.1484375 3.484375 C3.09945312 2.66453125 3.05046875 1.8446875 3 1 C2.01 0.67 1.02 0.34 0 0 Z " fill="#E86239" transform="translate(235,280)"/>
<path d="M0 0 C3.33303003 -0.1174875 6.66551837 -0.18767324 10 -0.25 C10.93457031 -0.28351563 11.86914062 -0.31703125 12.83203125 -0.3515625 C18.88094778 -0.43616273 24.14130877 0.08199523 29 4 C30.21484375 6.13964844 30.21484375 6.13964844 31 8 C29.948125 7.566875 29.948125 7.566875 28.875 7.125 C19.1675129 3.32641809 8.96068653 2.24125036 -1 6 C-3.22127404 9.18358495 -3.21557849 11.94570353 -3.125 15.75 C-3.10695312 16.73484375 -3.08890625 17.7196875 -3.0703125 18.734375 C-3.04710937 19.48203125 -3.02390625 20.2296875 -3 21 C-4.32 20.01 -5.64 19.02 -7 18 C-6.34 14.7 -5.68 11.4 -5 8 C-4.34 8 -3.68 8 -3 8 C-3 6.68 -3 5.36 -3 4 C-1.68 4 -0.36 4 1 4 C0.67 2.68 0.34 1.36 0 0 Z " fill="#EB4613" transform="translate(236,177)"/>
<path d="M0 0 C1.2065625 0.0309375 1.2065625 0.0309375 2.4375 0.0625 C2.7675 2.0425 3.0975 4.0225 3.4375 6.0625 C2.4475 6.5575 2.4475 6.5575 1.4375 7.0625 C1.4375 6.4025 1.4375 5.7425 1.4375 5.0625 C0.1175 5.3925 -1.2025 5.7225 -2.5625 6.0625 C-2.500625 7.196875 -2.43875 8.33125 -2.375 9.5 C-2.375 14.34405947 -3.06434557 18.98811024 -3.875 23.75 C-4.05156128 24.83655884 -4.05156128 24.83655884 -4.23168945 25.94506836 C-5.03532214 30.4290611 -6.30463022 34.04640109 -8.5625 38.0625 C-9.63045593 34.85863222 -9.52570041 34.18762397 -8.75 31.0625 C-7.4139605 25.00997205 -6.87687763 18.91785855 -6.34838867 12.75195312 C-5.17147088 0.12613344 -5.17147088 0.12613344 0 0 Z " fill="#E26E49" transform="translate(364.5625,208.9375)"/>
<path d="M0 0 C1.32 0 2.64 0 4 0 C2.60612062 4.06487338 0.68116942 6.89609258 -2.0625 10.1875 C-4.80920164 13.41282987 -4.80920164 13.41282987 -7 17 C-7.66 17 -8.32 17 -9 17 C-9 17.66 -9 18.32 -9 19 C-9.66 19 -10.32 19 -11 19 C-11 19.66 -11 20.32 -11 21 C-11.66 21 -12.32 21 -13 21 C-13.33 21.99 -13.66 22.98 -14 24 C-14.66 24 -15.32 24 -16 24 C-16 24.66 -16 25.32 -16 26 C-17.6796875 27.5078125 -17.6796875 27.5078125 -19.875 29.125 C-20.59429687 29.66382813 -21.31359375 30.20265625 -22.0546875 30.7578125 C-24 32 -24 32 -26 32 C-26 32.66 -26 33.32 -26 34 C-27.65 34.66 -29.3 35.32 -31 36 C-31.33 35.34 -31.66 34.68 -32 34 C-31.01 34 -30.02 34 -29 34 C-29 33.01 -29 32.02 -29 31 C-28.01 30.67 -27.02 30.34 -26 30 C-25.67 29.34 -25.34 28.68 -25 28 C-24.01 28 -23.02 28 -22 28 C-22 27.34 -22 26.68 -22 26 C-21.01 26 -20.02 26 -19 26 C-18.67 25.01 -18.34 24.02 -18 23 C-17.01 23 -16.02 23 -15 23 C-15 22.01 -15 21.02 -15 20 C-14.34 20 -13.68 20 -13 20 C-12.566875 19.1028125 -12.566875 19.1028125 -12.125 18.1875 C-11 16 -11 16 -9 13 C-8.01 13 -7.02 13 -6 13 C-6 12.01 -6 11.02 -6 10 C-5.34 10 -4.68 10 -4 10 C-3.71125 9.278125 -3.4225 8.55625 -3.125 7.8125 C-1.5625 3.90625 -1.5625 3.90625 0 0 Z " fill="#E1775B" transform="translate(358,293)"/>
<path d="M0 0 C1.01835937 -0.00128906 2.03671875 -0.00257812 3.0859375 -0.00390625 C14.18685114 0.1461061 24.91606949 2.07615244 35.75 4.375 C31.49649645 7.21066903 28.6233232 6.16101987 23.75 5.375 C22.27281019 5.03264344 20.79626555 4.68749351 19.3203125 4.33984375 C12.78838056 3.02076226 6.32735055 3.12035941 -0.3125 3.1875 C-1.52744141 3.18814453 -2.74238281 3.18878906 -3.99414062 3.18945312 C-10.49205625 3.22115027 -16.80945706 3.5084038 -23.25 4.375 C-22.92 3.715 -22.59 3.055 -22.25 2.375 C-15.04317045 0.25701327 -7.46184962 -0.01000248 0 0 Z " fill="#DC6745" transform="translate(251.25,111.625)"/>
<path d="M0 0 C0.66 0.33 1.32 0.66 2 1 C3.66036758 5.98110273 3.79858847 10.95916279 1.875 15.875 C-1.43093685 19.62172843 -4.6708939 20.81345879 -9.5625 21.5 C-14.81911683 20.73540119 -16.67218415 17.69410988 -19.8125 13.6875 C-20.4003125 12.8521875 -20.4003125 12.8521875 -21 12 C-19.02 11.67 -17.04 11.34 -15 11 C-15.33 12.32 -15.66 13.64 -16 15 C-14.68 15.33 -13.36 15.66 -12 16 C-12 16.66 -12 17.32 -12 18 C-11.01 18 -10.02 18 -9 18 C-9 17.34 -9 16.68 -9 16 C-7.68 16 -6.36 16 -5 16 C-3.35 15.67 -1.7 15.34 0 15 C0 10.05 0 5.1 0 0 Z " fill="#E8673F" transform="translate(288,173)"/>
<path d="M0 0 C3.96 0 7.92 0 12 0 C8.64944101 2.23370599 6.17807541 2.75749742 2.25 3.5625 C0.46335937 3.93568359 0.46335937 3.93568359 -1.359375 4.31640625 C-9.32369275 5.81185218 -16.84989564 6.12227195 -24.9375 6.0625 C-26.67870117 6.05573242 -26.67870117 6.05573242 -28.45507812 6.04882812 C-31.30343934 6.03710647 -34.15169222 6.0206976 -37 6 C-37 5.34 -37 4.68 -37 4 C-36.32420898 3.97494385 -35.64841797 3.9498877 -34.95214844 3.92407227 C-31.8845832 3.80789258 -28.81730842 3.68526563 -25.75 3.5625 C-24.68652344 3.52318359 -23.62304688 3.48386719 -22.52734375 3.44335938 C-20.99013672 3.38051758 -20.99013672 3.38051758 -19.421875 3.31640625 C-18.47924805 3.27974854 -17.53662109 3.24309082 -16.56542969 3.20532227 C-14.25035053 3.02003662 -12.23480311 2.59642655 -10 2 C-8.25113019 1.93375493 -6.49997252 1.91447405 -4.75 1.9375 C-3.85796875 1.94652344 -2.9659375 1.95554687 -2.046875 1.96484375 C-1.37140625 1.97644531 -0.6959375 1.98804688 0 2 C0 1.34 0 0.68 0 0 Z " fill="#E77B54" transform="translate(276,347)"/>
<path d="M0 0 C0.33 0 0.66 0 1 0 C1.10823773 2.24893954 1.18569645 4.49937575 1.25 6.75 C1.29640625 8.00296875 1.3428125 9.2559375 1.390625 10.546875 C1 14 1 14 -0.94140625 15.87890625 C-4.12486321 19.15901466 -3.87849963 22.76775318 -4.1875 27.1875 C-4.91047297 35.91047297 -4.91047297 35.91047297 -6 37 C-6.15714654 38.63256758 -6.25085414 40.27135338 -6.31640625 41.91015625 C-6.35830078 42.89951172 -6.40019531 43.88886719 -6.44335938 44.90820312 C-6.48267578 45.94912109 -6.52199219 46.99003906 -6.5625 48.0625 C-6.60568359 49.10728516 -6.64886719 50.15207031 -6.69335938 51.22851562 C-6.79981225 53.81886884 -6.9018276 56.40932186 -7 59 C-7.33 59 -7.66 59 -8 59 C-8.34611114 38.39840028 -6.77171705 19.58961004 0 0 Z " fill="#E8846B" transform="translate(126,174)"/>
<path d="M0 0 C3.22590345 1.53963574 5.60753646 3.35569819 8 6 C7.34 7.32 6.68 8.64 6 10 C5.34 8.02 4.68 6.04 4 4 C0.37 4 -3.26 4 -7 4 C-7.66 5.32 -8.32 6.64 -9 8 C-9.99 7.67 -10.98 7.34 -12 7 C-13.79275866 10.11910856 -14.34290718 12.67682428 -14.625 16.25 C-14.69976562 17.14203125 -14.77453125 18.0340625 -14.8515625 18.953125 C-14.90054687 19.62859375 -14.94953125 20.3040625 -15 21 C-16.65 21 -18.3 21 -20 21 C-19.67 19.68 -19.34 18.36 -19 17 C-18.34 17.66 -17.68 18.32 -17 19 C-16.92523438 18.11957031 -16.85046875 17.23914063 -16.7734375 16.33203125 C-15.56566937 5.66341278 -15.56566937 5.66341278 -12 2.75 C-7.55749135 0.15853662 -5.22225487 -0.35405118 0 0 Z " fill="#DD6A4E" transform="translate(367,112)"/>
<path d="M0 0 C0.33 0.66 0.66 1.32 1 2 C0.67 2.66 0.34 3.32 0 4 C-0.40003373 8.24035755 -0.50799734 10.28562874 2 13.8125 C2.66 14.534375 3.32 15.25625 4 16 C4 16.66 4 17.32 4 18 C5.65 18 7.3 18 9 18 C9 18.33 9 18.66 9 19 C28.305 19.495 28.305 19.495 48 20 C48 20.33 48 20.66 48 21 C41.94939363 21.04944549 35.89890495 21.08574129 29.84814453 21.10986328 C27.78985546 21.11991954 25.73158067 21.13356629 23.67333984 21.15087891 C20.71448237 21.17514354 17.75581383 21.18648688 14.796875 21.1953125 C13.87694763 21.20563507 12.95702026 21.21595764 12.00921631 21.22659302 C11.1486261 21.22674408 10.28803589 21.22689514 9.40136719 21.22705078 C8.64635925 21.231492 7.89135132 21.23593323 7.11346436 21.24050903 C3.20763807 20.79603193 1.32143029 19.36607338 -1.25 16.4375 C-3.44211246 12.1315648 -3.78385291 8.74816646 -3 4 C-1.5 1.4375 -1.5 1.4375 0 0 Z " fill="#E58265" transform="translate(318,157)"/>
<path d="M0 0 C0.66 0 1.32 0 2 0 C2.350625 0.639375 2.70125 1.27875 3.0625 1.9375 C5.76543714 4.81482018 8.00099121 4.47001864 11.8125 4.7265625 C14 5 14 5 16.375 6.4375 C19.78820102 8.46916728 22.9721131 8.77343074 26.86328125 9.39453125 C32.37485967 10.45841002 37.67192995 12.25503588 43 14 C43 15.65 43 17.3 43 19 C42.43039551 18.68039307 41.86079102 18.36078613 41.27392578 18.03149414 C34.35308919 14.33969265 27.46973458 12.29467042 19.875 10.4375 C12.42910511 8.60368246 5.71730374 6.75282128 -1 3 C-0.67 2.01 -0.34 1.02 0 0 Z " fill="#DF6C49" transform="translate(226,220)"/>
<path d="M0 0 C10.06537543 0.48643078 17.85679248 5.30324295 25 12 C24.67 12.99 24.34 13.98 24 15 C23.01 15 22.02 15 21 15 C21 14.01 21 13.02 21 12 C20.34 12 19.68 12 19 12 C18.67 12.66 18.34 13.32 18 14 C17.67 11.69 17.34 9.38 17 7 C11.94990405 6.06213918 11.94990405 6.06213918 7 7 C6.01 6.67 5.02 6.34 4 6 C4 5.34 4 4.68 4 4 C2.02 3.34 0.04 2.68 -2 2 C-1.34 1.34 -0.68 0.68 0 0 Z " fill="#EA5E34" transform="translate(263,159)"/>
<path d="M0 0 C3.3088067 1.40877141 5.11467858 3.03750445 7.375 5.8125 C9.58373179 8.44103394 11.74549615 10.74303478 14.4375 12.875 C15.283125 13.57625 16.12875 14.2775 17 15 C17 15.66 17 16.32 17 17 C17.70125 17.2475 18.4025 17.495 19.125 17.75 C22.37002459 19.16088026 25.10316737 20.97895398 28 23 C26 24 26 24 23.5 23.1875 C21 22 21 22 19 20 C17.01612292 18.96838392 15.01723344 17.96476382 13 17 C13 16.34 13 15.68 13 15 C12.38125 14.938125 11.7625 14.87625 11.125 14.8125 C9 14 9 14 7.75 11.4375 C7.5025 10.633125 7.255 9.82875 7 9 C6.34 9 5.68 9 5 9 C5 8.34 5 7.68 5 7 C4.01 7.33 3.02 7.66 2 8 C2 7.01 2 6.02 2 5 C1.34 5 0.68 5 0 5 C0 3.35 0 1.7 0 0 Z " fill="#DF6544" transform="translate(166,287)"/>
<path d="M0 0 C0.33 0 0.66 0 1 0 C3.52252091 45.99575364 3.52252091 45.99575364 -2 54 C-2.66 54.66 -3.32 55.32 -4 56 C-4.99 56 -5.98 56 -7 56 C-7 55.01 -7 54.02 -7 53 C-5.515 52.505 -5.515 52.505 -4 52 C-1.26120893 49.09915312 -0.61954072 47.08509493 -0.56762695 43.13964844 C-0.54783279 42.17895447 -0.52803864 41.2182605 -0.50764465 40.22845459 C-0.50125473 39.19915833 -0.49486481 38.16986206 -0.48828125 37.109375 C-0.47033005 36.04962463 -0.45237885 34.98987427 -0.43388367 33.89801025 C-0.3797298 30.51538056 -0.34586801 27.1328924 -0.3125 23.75 C-0.27933148 21.45570945 -0.24484227 19.16143759 -0.20898438 16.8671875 C-0.12400045 11.24491857 -0.05567198 5.62263144 0 0 Z " fill="#DE8674" transform="translate(375,120)"/>
<path d="M0 0 C0.33 0.99 0.66 1.98 1 3 C-0.8125 6.1875 -0.8125 6.1875 -3 9 C-3.66 9 -4.32 9 -5 9 C-5 9.66 -5 10.32 -5 11 C-5.78375 11.2475 -6.5675 11.495 -7.375 11.75 C-10.42295608 13.20140766 -10.72536664 13.99550707 -12 17 C-12.9793879 18.02019573 -13.97895449 19.02149805 -15 20 C-15.66 20.99 -16.32 21.98 -17 23 C-17.99 23 -18.98 23 -20 23 C-17.6692067 16.20185288 -13.46787205 12.46356902 -8 8 C-6.31384218 6.35305515 -4.64429829 4.68873879 -3 3 C-2 2 -1 1 0 0 Z " fill="#E0653F" transform="translate(165,119)"/>
<path d="M0 0 C25.55932203 4.66949153 25.55932203 4.66949153 34 11 C33.34 11.66 32.68 12.32 32 13 C32 12.34 32 11.68 32 11 C29.69 11 27.38 11 25 11 C25 10.34 25 9.68 25 9 C24.34128906 8.88398438 23.68257813 8.76796875 23.00390625 8.6484375 C19.2513851 7.83840042 15.60321493 6.75394612 11.9375 5.625 C11.23044922 5.41617188 10.52339844 5.20734375 9.79492188 4.9921875 C6.01297658 3.82741937 2.976078 2.64368488 0 0 Z " fill="#E36745" transform="translate(246,206)"/>
<path d="M0 0 C0.66 0.33 1.32 0.66 2 1 C1.57316761 2.58624235 1.13303842 4.1689098 0.6875 5.75 C0.44386719 6.63171875 0.20023438 7.5134375 -0.05078125 8.421875 C-1 11 -1 11 -2.58984375 12.81640625 C-4.71155339 16.10182366 -4.35737877 19.41246523 -4.25 23.1875 C-4.24484375 23.92419922 -4.2396875 24.66089844 -4.234375 25.41992188 C-4.49494761 29.00739672 -4.49494761 29.00739672 -3 32 C-2.95907063 34.33297433 -2.95758277 36.66705225 -3 39 C-7.56950072 32.14574891 -8.00084941 23.17227285 -6.46484375 15.234375 C-5.04923309 9.57193237 -3.15901664 4.90192237 0 0 Z " fill="#E07E5D" transform="translate(214,170)"/>
<path d="M0 0 C0.721875 0.144375 1.44375 0.28875 2.1875 0.4375 C3.5796875 0.7159375 3.5796875 0.7159375 5 1 C6.66666667 1.33333333 8.33333333 1.66666667 10 2 C11.125 6.75 11.125 6.75 10 9 C7.015625 9.37890625 7.015625 9.37890625 3.25 9.5625 C-0.93708445 9.77710998 -4.91038311 10.0556419 -9 11 C-9 10.34 -9 9.68 -9 9 C-5.33552568 7.35199144 -2.18796534 6.66419027 1.8125 6.375 C2.78832031 6.30023438 3.76414062 6.22546875 4.76953125 6.1484375 C5.87361328 6.07496094 5.87361328 6.07496094 7 6 C6.4946875 5.65066406 5.989375 5.30132812 5.46875 4.94140625 C4.8190625 4.48636719 4.169375 4.03132812 3.5 3.5625 C2.8503125 3.11003906 2.200625 2.65757812 1.53125 2.19140625 C1.0259375 1.79824219 0.520625 1.40507812 0 1 C0 0.67 0 0.34 0 0 Z " fill="#D95E38" transform="translate(328,146)"/>
<path d="M0 0 C0.33 0 0.66 0 1 0 C1.37624274 4.7030342 1.42340877 8.1043276 -0.625 12.4375 C-3.32534501 15.35103014 -5.18258448 16.08713977 -9 17 C-9.66 17.33 -10.32 17.66 -11 18 C-13.37402501 18.07116382 -15.75000677 18.08409085 -18.125 18.0625 C-19.40632812 18.05347656 -20.68765625 18.04445313 -22.0078125 18.03515625 C-23.48894531 18.01775391 -23.48894531 18.01775391 -25 18 C-25.33 17.34 -25.66 16.68 -26 16 C-24.37191406 15.94392578 -24.37191406 15.94392578 -22.7109375 15.88671875 C-21.26559261 15.82102125 -19.82028161 15.75457524 -18.375 15.6875 C-17.66214844 15.66494141 -16.94929687 15.64238281 -16.21484375 15.61914062 C-11.50371868 15.38142331 -8.06280215 14.61661617 -4 12 C-1.90544829 8.09980027 -0.66224392 4.37080987 0 0 Z " fill="#E2886F" transform="translate(271,243)"/>
<path d="M0 0 C3.63 1.65 7.26 3.3 11 5 C11 5.66 11 6.32 11 7 C11.67546875 7.19335938 12.3509375 7.38671875 13.046875 7.5859375 C13.93890625 7.84632813 14.8309375 8.10671875 15.75 8.375 C16.63171875 8.63023437 17.5134375 8.88546875 18.421875 9.1484375 C20.76080572 9.9209934 22.83442562 10.83625676 25 12 C19.158256 12.35050464 15.1468192 12.16727335 10 9 C10 8.34 10 7.68 10 7 C9.05125 7.020625 8.1025 7.04125 7.125 7.0625 C4 7 4 7 2 6 C2 5.01 2 4.02 2 3 C1.34 3 0.68 3 0 3 C0 2.01 0 1.02 0 0 Z " fill="#EB5A30" transform="translate(235,200)"/>
<path d="M0 0 C0.33 1.32 0.66 2.64 1 4 C0.01 4.33 -0.98 4.66 -2 5 C-2.433125 5.86625 -2.433125 5.86625 -2.875 6.75 C-4.39383068 9.78766137 -6.54843733 11.6624635 -9 14 C-9.845625 14.94875 -10.69125 15.8975 -11.5625 16.875 C-12.366875 17.57625 -13.17125 18.2775 -14 19 C-16.3125 18.8125 -16.3125 18.8125 -18 18 C-16.68 17.34 -15.36 16.68 -14 16 C-14 15.34 -14 14.68 -14 14 C-12.35546875 12.4140625 -12.35546875 12.4140625 -10.1875 10.625 C-7.93749143 8.76433718 -6.09649715 7.13127297 -4.36328125 4.7734375 C-3.68845703 3.89558594 -3.68845703 3.89558594 -3 3 C-2.34 3 -1.68 3 -1 3 C-0.67 2.01 -0.34 1.02 0 0 Z " fill="#DC6B4C" transform="translate(335,286)"/>
<path d="M0 0 C3.50973145 0.42976303 6.79952176 0.93907034 10.1875 1.96875 C14.44349542 3.11996188 18.56389919 3.66777695 22.9375 4.125 C24.10635742 4.25455078 24.10635742 4.25455078 25.29882812 4.38671875 C27.1986337 4.59651323 29.09924174 4.79901994 31 5 C31 5.33 31 5.66 31 6 C21.26002295 7.8984701 13.30018889 5.67497072 4 3 C2.66854328 2.65924804 1.33629433 2.32125746 0 2 C0 1.34 0 0.68 0 0 Z " fill="#E2785B" transform="translate(216,322)"/>
<path d="M0 0 C0.99 0.33 1.98 0.66 3 1 C2.125 7.75 2.125 7.75 1 10 C0.34 10 -0.32 10 -1 10 C-1 12.31 -1 14.62 -1 17 C-1.66 17.33 -2.32 17.66 -3 18 C-4.13350534 20.01669827 -4.13350534 20.01669827 -5 22 C-5.66 22 -6.32 22 -7 22 C-6.5875 20.783125 -6.175 19.56625 -5.75 18.3125 C-3.72341064 12.24242851 -1.86391367 6.12158449 0 0 Z " fill="#E97755" transform="translate(354,247)"/>
<path d="M0 0 C0.33 0 0.66 0 1 0 C1.20140476 3.62528568 0.85776765 5.86501708 -1 9 C-1.66 9 -2.32 9 -3 9 C-2.67 9.99 -2.34 10.98 -2 12 C-2.99 12 -3.98 12 -5 12 C-4.67 12.99 -4.34 13.98 -4 15 C-5.65 15.33 -7.3 15.66 -9 16 C-9 11.87308848 -6.87176473 9.54687229 -4.5625 6.3125 C-4.14162109 5.70599609 -3.72074219 5.09949219 -3.28710938 4.47460938 C-2.22269458 2.96058577 -1.11482383 1.47729963 0 0 Z " fill="#E55F36" transform="translate(346,270)"/>
<path d="M0 0 C1.65 0 3.3 0 5 0 C3.59473786 3.27655508 1.97082527 5.15432686 -0.75 7.4375 C-1.45640625 8.035625 -2.1628125 8.63375 -2.890625 9.25 C-3.58671875 9.8275 -4.2828125 10.405 -5 11 C-5.61359375 11.515625 -6.2271875 12.03125 -6.859375 12.5625 C-8.23422594 13.71475603 -9.61626963 14.85842244 -11 16 C-10.8125 13.1875 -10.8125 13.1875 -10 10 C-7.37232094 7.99466598 -5.13211099 7.044037 -2 6 C-0.77479736 2.99152582 -0.77479736 2.99152582 0 0 Z " fill="#DF6043" transform="translate(182,133)"/>
<path d="M0 0 C2.97 0.495 2.97 0.495 6 1 C6 1.66 6 2.32 6 3 C6.94875 3.28875 7.8975 3.5775 8.875 3.875 C12 5 12 5 14 7 C10.7 7.33 7.4 7.66 4 8 C2.3372974 5.32521756 1.00016187 3.0004856 0 0 Z " fill="#EC5C2F" transform="translate(190,310)"/>
<path d="M0 0 C0.66 0 1.32 0 2 0 C2.07654536 4.51617599 2.10228696 8.59085217 1 13 C0.34 13 -0.32 13 -1 13 C-1 20.59 -1 28.18 -1 36 C-1.33 36 -1.66 36 -2 36 C-2.05893685 32.0625648 -2.09390669 28.12524573 -2.125 24.1875 C-2.14175781 23.08728516 -2.15851563 21.98707031 -2.17578125 20.85351562 C-2.21813455 13.67463138 -1.56258545 7.00873305 0 0 Z " fill="#DC5735" transform="translate(144,198)"/>
<path d="M0 0 C0 0.66 0 1.32 0 2 C-2.64 2.33 -5.28 2.66 -8 3 C-8 3.66 -8 4.32 -8 5 C-8.969375 5.45375 -9.93875 5.9075 -10.9375 6.375 C-14.07079582 7.65786221 -14.07079582 7.65786221 -15 10 C-17.06640625 10.4140625 -17.06640625 10.4140625 -19.5625 10.625 C-20.80193359 10.73714844 -20.80193359 10.73714844 -22.06640625 10.8515625 C-23.02353516 10.92503906 -23.02353516 10.92503906 -24 11 C-20.7251269 7.42770004 -16.90077693 5.82683009 -12.5625 3.8125 C-11.79873047 3.44447266 -11.03496094 3.07644531 -10.24804688 2.69726562 C-9.50748047 2.34986328 -8.76691406 2.00246094 -8.00390625 1.64453125 C-6.99565796 1.17043823 -6.99565796 1.17043823 -5.96704102 0.68676758 C-4 0 -4 0 0 0 Z " fill="#E27B5C" transform="translate(205,97)"/>
<path d="M0 0 C10.55808656 2.89066059 10.55808656 2.89066059 15 6 C11.91223433 6.95657433 9.62229007 6.97421578 6.4375 6.5 C3.31722466 6.03695745 2.08374717 5.97208428 -1 7 C-0.67 4.69 -0.34 2.38 0 0 Z " fill="#E8572C" transform="translate(299,97)"/>
<path d="M0 0 C-4.79482068 2.75702189 -8.58609132 3.53328373 -14 4 C-14 6.64 -14 9.28 -14 12 C-14.33 12 -14.66 12 -15 12 C-15 8.7 -15 5.4 -15 2 C-14.01 2 -13.02 2 -12 2 C-11.67 1.01 -11.34 0.02 -11 -1 C-3.57142857 -2.42857143 -3.57142857 -2.42857143 0 0 Z " fill="#EE7C5D" transform="translate(276,277)"/>
<path d="M0 0 C0.66 0.33 1.32 0.66 2 1 C2 1.33 2 1.66 2 2 C2.66 2.33 3.32 2.66 4 3 C3.01 4.485 3.01 4.485 2 6 C1.01 5.67 0.02 5.34 -1 5 C-2.79275866 8.11910856 -3.34290718 10.67682428 -3.625 14.25 C-3.69976562 15.14203125 -3.77453125 16.0340625 -3.8515625 16.953125 C-3.90054687 17.62859375 -3.94953125 18.3040625 -4 19 C-5.65 19 -7.3 19 -9 19 C-8.67 17.68 -8.34 16.36 -8 15 C-7.34 15.66 -6.68 16.32 -6 17 C-5.85304688 15.66195312 -5.85304688 15.66195312 -5.703125 14.296875 C-5.55359375 13.12640625 -5.4040625 11.9559375 -5.25 10.75 C-5.11078125 9.58984375 -4.9715625 8.4296875 -4.828125 7.234375 C-3.91129517 3.65354905 -2.81664498 2.31285482 0 0 Z " fill="#E96A3B" transform="translate(356,114)"/>
<path d="M0 0 C1.13087014 3.39261042 0.86514295 4.16517757 -0.21484375 7.44921875 C-0.62573242 8.72055664 -0.62573242 8.72055664 -1.04492188 10.01757812 C-1.48674805 11.33918945 -1.48674805 11.33918945 -1.9375 12.6875 C-2.22818359 13.58017578 -2.51886719 14.47285156 -2.81835938 15.39257812 C-3.53769987 17.59776948 -4.26516672 19.79993258 -5 22 C-7 19 -7 19 -6.81640625 16.2421875 C-5.90219203 12.61157599 -4.55576057 9.49924544 -2.9375 6.125 C-2.38964844 4.97257813 -1.84179688 3.82015625 -1.27734375 2.6328125 C-0.85582031 1.76398438 -0.43429687 0.89515625 0 0 Z " fill="#E27959" transform="translate(380,248)"/>
<path d="M0 0 C3.89543877 -0.14553599 7.79017651 -0.23415059 11.6875 -0.3125 C13.34168945 -0.3753418 13.34168945 -0.3753418 15.02929688 -0.43945312 C23.06855724 -0.5608921 23.06855724 -0.5608921 25.88525391 1.13525391 C27.26953125 2.51953125 27.26953125 2.51953125 29 5 C26 5 26 5 23 3 C18.45954124 1.68019572 13.87153979 1.88645849 9.1875 1.9375 C8.39923828 1.94201172 7.61097656 1.94652344 6.79882812 1.95117188 C4.86585239 1.96288688 2.93291607 1.98082002 1 2 C0.67 1.34 0.34 0.68 0 0 Z " fill="#EA7857" transform="translate(238,179)"/>
<path d="M0 0 C0.66 0.66 1.32 1.32 2 2 C1.9006627 5.67548019 1.03000948 6.96614315 -1.4375 9.75 C-5.19809658 13.05198724 -7.06806732 13.10721593 -12 13 C-10.04783565 11.04783565 -8.46800047 10.15173355 -6 9 C-6 8.34 -6 7.68 -6 7 C-5.01 6.67 -4.02 6.34 -3 6 C-2.34 6.33 -1.68 6.66 -1 7 C-0.67 4.69 -0.34 2.38 0 0 Z " fill="#E27A55" transform="translate(259,288)"/>
<path d="M0 0 C0.66 0 1.32 0 2 0 C2.350625 0.639375 2.70125 1.27875 3.0625 1.9375 C5.74384115 4.7918309 7.85831952 4.41116933 11.63671875 4.65234375 C15.37563313 5.20236587 17.87161417 6.93659658 21 9 C17.12023206 10.47981369 14.42646335 9.48289466 10.5625 8.25 C9.45003906 7.90453125 8.33757812 7.5590625 7.19140625 7.203125 C4.19229492 6.07249307 1.68006995 4.74329783 -1 3 C-0.67 2.01 -0.34 1.02 0 0 Z " fill="#E26849" transform="translate(226,220)"/>
<path d="M0 0 C1.65 0 3.3 0 5 0 C-0.80506109 6.29193718 -8.88189529 9.76457986 -17 12 C-16.67 11.01 -16.34 10.02 -16 9 C-12.535 8.505 -12.535 8.505 -9 8 C-9 7.34 -9 6.68 -9 6 C-8.01 6 -7.02 6 -6 6 C-6 5.34 -6 4.68 -6 4 C-4.68 4 -3.36 4 -2 4 C-2 3.34 -2 2.68 -2 2 C-1.34 2 -0.68 2 0 2 C0 1.34 0 0.68 0 0 Z " fill="#DE7752" transform="translate(322,329)"/>
<path d="M0 0 C2.00059608 2.54621319 3.79215046 4.98037615 5 8 C4.67 8.66 4.34 9.32 4 10 C4.66 10 5.32 10 6 10 C6.99 12.97 7.98 15.94 9 19 C8.01 19 7.02 19 6 19 C4.80057395 16.40074504 3.61527179 13.79654493 2.4375 11.1875 C1.92413086 10.08051758 1.92413086 10.08051758 1.40039062 8.95117188 C1.08134766 8.23896484 0.76230469 7.52675781 0.43359375 6.79296875 C0.13509521 6.1383667 -0.16340332 5.48376465 -0.47094727 4.80932617 C-1 3 -1 3 0 0 Z " fill="#E36C4A" transform="translate(128,266)"/>
<path d="M0 0 C0.81210938 0.33837891 0.81210938 0.33837891 1.640625 0.68359375 C-0.87768247 3.80629501 -2.0855299 4.62882473 -6.109375 5.43359375 C-7.718125 5.55734375 -7.718125 5.55734375 -9.359375 5.68359375 C-10.019375 7.33359375 -10.679375 8.98359375 -11.359375 10.68359375 C-12.679375 10.35359375 -13.999375 10.02359375 -15.359375 9.68359375 C-15.359375 9.02359375 -15.359375 8.36359375 -15.359375 7.68359375 C-14.699375 7.68359375 -14.039375 7.68359375 -13.359375 7.68359375 C-13.359375 7.02359375 -13.359375 6.36359375 -13.359375 5.68359375 C-11.61814951 4.64786479 -9.86600905 3.63046855 -8.109375 2.62109375 C-6.64757812 1.76837891 -6.64757812 1.76837891 -5.15625 0.8984375 C-2.359375 -0.31640625 -2.359375 -0.31640625 0 0 Z " fill="#E37455" transform="translate(231.359375,160.31640625)"/>
<path d="M0 0 C0.66 0 1.32 0 2 0 C1.84015625 0.57234375 1.6803125 1.1446875 1.515625 1.734375 C-0.08653847 8.77418417 1.15893313 14.48922175 4 21 C3.34 21 2.68 21 2 21 C-1.90541325 15.38596846 -2.98374207 10.82900019 -2 4 C-0.9765625 1.69921875 -0.9765625 1.69921875 0 0 Z " fill="#DD6C51" transform="translate(209,248)"/>
<path d="M0 0 C-3.04213267 1.52106634 -6.28047572 1.37429338 -9.625 1.5625 C-10.33140625 1.60568359 -11.0378125 1.64886719 -11.765625 1.69335938 C-13.51018537 1.79944751 -15.25506697 1.90022889 -17 2 C-17.33 2.99 -17.66 3.98 -18 5 C-20.64 5 -23.28 5 -26 5 C-25 3 -25 3 -23.1015625 2.18359375 C-15.7621385 -0.02749455 -7.55081012 -2.31792311 0 0 Z " fill="#E06641" transform="translate(231,92)"/>
<path d="M0 0 C2.31 0 4.62 0 7 0 C7.33 1.32 7.66 2.64 8 4 C8.66 4 9.32 4 10 4 C10.66 5.98 11.32 7.96 12 10 C6.74308545 8.56629603 3.48214849 5.00396901 0 1 C0 0.67 0 0.34 0 0 Z " fill="#EB5528" transform="translate(213,212)"/>
<path d="M0 0 C0.99 0.33 1.98 0.66 3 1 C0.69 6.61 -1.62 12.22 -4 18 C-4.33 18 -4.66 18 -5 18 C-5.27036084 12.72796354 -4.26305335 8.07476794 -3 3 C-2.01 3 -1.02 3 0 3 C0 2.01 0 1.02 0 0 Z " fill="#E06943" transform="translate(155,166)"/>
<path d="M0 0 C2.9375 0.375 2.9375 0.375 6 1 C6.33 1.66 6.66 2.32 7 3 C8.32 3 9.64 3 11 3 C11.33 5.64 11.66 8.28 12 11 C7.36279281 7.72469104 3.31457218 4.69564393 0 0 Z " fill="#E17352" transform="translate(316,135)"/>
<path d="M0 0 C3.10609978 2.07073319 3.94458127 3.24999997 5.6875 6.4375 C6.12449219 7.21996094 6.56148437 8.00242187 7.01171875 8.80859375 C8 11 8 11 8 14 C6.68 14.33 5.36 14.66 4 15 C4 13.35 4 11.7 4 10 C3.34 10 2.68 10 2 10 C0.68373308 6.38026598 0 3.90432869 0 0 Z " fill="#E26A4A" transform="translate(152,265)"/>
<path d="M0 0 C0.33 0 0.66 0 1 0 C1.10794277 2.26979665 1.18556176 4.54105196 1.25 6.8125 C1.29640625 8.07707031 1.3428125 9.34164062 1.390625 10.64453125 C1 14 1 14 -1.015625 15.94921875 C-1.67046875 16.29597656 -2.3253125 16.64273438 -3 17 C-3.34548714 10.66606918 -2.29342747 5.89738492 0 0 Z " fill="#E3613E" transform="translate(126,174)"/>
<path d="M0 0 C1.65 0.33 3.3 0.66 5 1 C3.6744419 4.62276315 2.05653045 7.63505348 -0.125 10.8125 C-0.66382813 11.60269531 -1.20265625 12.39289063 -1.7578125 13.20703125 C-2.16773438 13.79871094 -2.57765625 14.39039063 -3 15 C-3.66 14.34 -4.32 13.68 -5 13 C-5 12.01 -5 11.02 -5 10 C-4.01 10 -3.02 10 -2 10 C-1.67 8.35 -1.34 6.7 -1 5 C-0.34 5 0.32 5 1 5 C0.67 3.35 0.34 1.7 0 0 Z " fill="#E36845" transform="translate(162,152)"/>
<path d="M0 0 C0.763125 0.28875 1.52625 0.5775 2.3125 0.875 C2.3125 1.205 2.3125 1.535 2.3125 1.875 C1.27609375 1.8028125 0.2396875 1.730625 -0.828125 1.65625 C-2.1979118 1.56242899 -3.56770374 1.46868292 -4.9375 1.375 C-5.96037109 1.30345703 -5.96037109 1.30345703 -7.00390625 1.23046875 C-10.24481503 1.01021281 -13.4368366 0.875 -16.6875 0.875 C-16.6875 -0.115 -16.6875 -1.105 -16.6875 -2.125 C-12.07103998 -4.43323001 -4.71386595 -1.4381286 0 0 Z " fill="#E0643A" transform="translate(289.6875,93.125)"/>
<path d="M0 0 C-0.66 0 -1.32 0 -2 0 C-1.81171228 2.44480079 -1.81171228 2.44480079 -1 5 C0.9001177 6.24174796 0.9001177 6.24174796 3 7 C3.66 7.66 4.32 8.32 5 9 C4.01 9.495 4.01 9.495 3 10 C1.53699018 9.06981474 0.07974421 8.13055973 -1.375 7.1875 C-2.18710938 6.66542969 -2.99921875 6.14335937 -3.8359375 5.60546875 C-6 4 -6 4 -8 1 C-3.375 -1.125 -3.375 -1.125 0 0 Z " fill="#EA633A" transform="translate(176,322)"/>
<path d="M0 0 C2.41793589 1.20896794 2.79103206 1.58206411 4 4 C3.37351562 4.19335938 2.74703125 4.38671875 2.1015625 4.5859375 C1.28429687 4.84632813 0.46703125 5.10671875 -0.375 5.375 C-1.18710937 5.63023437 -1.99921875 5.88546875 -2.8359375 6.1484375 C-5.16459185 6.89854283 -5.16459185 6.89854283 -7 9 C-8.98821313 9.39764263 -10.98944339 9.73775349 -13 10 C-9.28249221 5.79759989 -4.68339021 3.00217321 0 0 Z " fill="#E5623B" transform="translate(315,305)"/>
<path d="M0 0 C0.66 0.33 1.32 0.66 2 1 C3.69093877 6.07281632 3.84403666 11.07077335 1.6875 16 C0 18 0 18 -3 19 C-3 17.68 -3 16.36 -3 15 C-2.01 15 -1.02 15 0 15 C0 10.05 0 5.1 0 0 Z " fill="#DA6C4E" transform="translate(288,173)"/>
<path d="M0 0 C-1.4671173 3.55736507 -3.3706419 5.44195167 -6.375 7.8125 C-7.14585937 8.43769531 -7.91671875 9.06289062 -8.7109375 9.70703125 C-11 11 -11 11 -13.2890625 10.69921875 C-13.85367188 10.46847656 -14.41828125 10.23773438 -15 10 C-12.87941855 8.32742872 -10.75395924 6.66184582 -8.625 5 C-8.02171875 4.52304688 -7.4184375 4.04609375 -6.796875 3.5546875 C-2.2265625 0 -2.2265625 0 0 0 Z " fill="#E0744F" transform="translate(181,108)"/>
<path d="M0 0 C0.33 0 0.66 0 1 0 C1 2.64 1 5.28 1 8 C0.34 8 -0.32 8 -1 8 C-0.67 9.65 -0.34 11.3 0 13 C-0.99 13.66 -1.98 14.32 -3 15 C-3.66 14.67 -4.32 14.34 -5 14 C-4.54636829 12.41531323 -4.08688548 10.83230076 -3.625 9.25 C-3.36976563 8.36828125 -3.11453125 7.4865625 -2.8515625 6.578125 C-2.0790066 4.23919428 -1.16374324 2.16557438 0 0 Z " fill="#E57F60" transform="translate(132,160)"/>
<path d="M0 0 C-3.23521742 2.48862878 -6.59260295 4.75421558 -10 7 C-10.66 6.67 -11.32 6.34 -12 6 C-11.34 4.02 -10.68 2.04 -10 0 C-6.30458414 -0.95024979 -3.69541586 -0.95024979 0 0 Z " fill="#E9653F" transform="translate(204,124)"/>
<path d="M0 0 C0.66 0 1.32 0 2 0 C0.50958227 3.79379058 -1.69062512 5.68343758 -5 8 C-5.66 8 -6.32 8 -7 8 C-7 8.66 -7 9.32 -7 10 C-8.65 10.66 -10.3 11.32 -12 12 C-12.33 11.34 -12.66 10.68 -13 10 C-12.01 10 -11.02 10 -10 10 C-10 9.01 -10 8.02 -10 7 C-9.01 6.67 -8.02 6.34 -7 6 C-6.67 5.34 -6.34 4.68 -6 4 C-5.01 4 -4.02 4 -3 4 C-3 3.34 -3 2.68 -3 2 C-2.01 2 -1.02 2 0 2 C0 1.34 0 0.68 0 0 Z " fill="#DB6F4B" transform="translate(339,317)"/>
<path d="M0 0 C0.78375 0.04125 1.5675 0.0825 2.375 0.125 C2.705 2.105 3.035 4.085 3.375 6.125 C2.385 6.62 2.385 6.62 1.375 7.125 C1.375 6.465 1.375 5.805 1.375 5.125 C-0.275 5.455 -1.925 5.785 -3.625 6.125 C-4.25 4.25 -4.25 4.25 -4.625 2.125 C-2.625 0.125 -2.625 0.125 0 0 Z " fill="#EC5F30" transform="translate(364.625,208.875)"/>
<path d="M0 0 C1.98 0 3.96 0 6 0 C5.38125 0.2475 4.7625 0.495 4.125 0.75 C1.52957314 2.27672168 1.06969682 3.21114759 0 6 C-0.24073194 8.82085728 -0.24073194 8.82085728 -0.125 11.75 C-0.10695312 12.73484375 -0.08890625 13.7196875 -0.0703125 14.734375 C-0.04710937 15.48203125 -0.02390625 16.2296875 0 17 C-1.32 16.01 -2.64 15.02 -4 14 C-3.34 10.7 -2.68 7.4 -2 4 C-1.34 4 -0.68 4 0 4 C0 2.68 0 1.36 0 0 Z " fill="#E97D58" transform="translate(233,181)"/>
<path d="M0 0 C7.52719602 -0.25515919 14.58851545 0.71702277 22 2 C18.79027854 4.13981431 18.48299161 4.23903333 14.9375 3.75 C13.761875 3.58951172 13.761875 3.58951172 12.5625 3.42578125 C8.35180433 2.72613822 4.17271973 1.89726541 0 1 C0 0.67 0 0.34 0 0 Z " fill="#E77554" transform="translate(265,114)"/>
<path d="M0 0 C-0.99 0 -1.98 0 -3 0 C-3 0.66 -3 1.32 -3 2 C-6.61867559 3.2062252 -9.92506251 3.10816918 -13.6875 3.0625 C-14.38939453 3.05798828 -15.09128906 3.05347656 -15.81445312 3.04882812 C-17.54300538 3.03706927 -19.27151365 3.01913454 -21 3 C-21 2.67 -21 2.34 -21 2 C-18.25162151 1.46892686 -15.50187625 0.94984119 -12.75 0.4375 C-11.97269531 0.28603516 -11.19539063 0.13457031 -10.39453125 -0.02148438 C-9.64042969 -0.16005859 -8.88632812 -0.29863281 -8.109375 -0.44140625 C-7.07248535 -0.63778687 -7.07248535 -0.63778687 -6.01464844 -0.83813477 C-3.78712058 -1.01710362 -2.12493038 -0.65206197 0 0 Z " fill="#E28164" transform="translate(279,325)"/>
<path d="M0 0 C2.475 0.99 2.475 0.99 5 2 C5 2.66 5 3.32 5 4 C6.65 4.33 8.3 4.66 10 5 C10.33 5.99 10.66 6.98 11 8 C11.66 8.66 12.32 9.32 13 10 C13 10.66 13 11.32 13 12 C12.34 12 11.68 12 11 12 C11 11.34 11 10.68 11 10 C10.46375 9.773125 9.9275 9.54625 9.375 9.3125 C5.25299737 7.03455118 1.53293843 4.59881529 0 0 Z " fill="#DD6B4E" transform="translate(155,311)"/>
<path d="M0 0 C1.98 0.99 1.98 0.99 4 2 C4 2.66 4 3.32 4 4 C4.70125 4.2475 5.4025 4.495 6.125 4.75 C9.37002459 6.16088026 12.10316737 7.97895398 15 10 C13 11 13 11 10.5 10.1875 C8 9 8 9 6 7 C4.01612292 5.96838392 2.01723344 4.96476382 0 4 C0 2.68 0 1.36 0 0 Z " fill="#DF7961" transform="translate(179,300)"/>
<path d="M0 0 C0.8971875 0.86625 0.8971875 0.86625 1.8125 1.75 C6.200463 4.84738565 10.92749003 6.32989164 16 8 C11.80674634 9.3057939 9.16189938 8.33775337 5 7 C4.236875 6.814375 3.47375 6.62875 2.6875 6.4375 C1 6 1 6 -1 5 C-0.67 3.35 -0.34 1.7 0 0 Z " fill="#E67654" transform="translate(226,250)"/>
<path d="M0 0 C1.0209375 0.7734375 1.0209375 0.7734375 2.0625 1.5625 C2.0625 2.2225 2.0625 2.8825 2.0625 3.5625 C1.0725 3.5625 0.0825 3.5625 -0.9375 3.5625 C-0.9375 2.9025 -0.9375 2.2425 -0.9375 1.5625 C-1.9275 1.8925 -2.9175 2.2225 -3.9375 2.5625 C-4.2675 1.5725 -4.5975 0.5825 -4.9375 -0.4375 C-8.5675 0.2225 -12.1975 0.8825 -15.9375 1.5625 C-14.9375 -0.4375 -14.9375 -0.4375 -12.8125 -1.625 C-8.07552461 -2.96371044 -4.37000093 -2.13851109 0 0 Z " fill="#E28168" transform="translate(378.9375,207.4375)"/>
<path d="M0 0 C0.33 0 0.66 0 1 0 C1.66 6.93 2.32 13.86 3 21 C-0.10147731 17.89852269 -0.49212474 14.27515254 -1 10 C-0.88304386 6.62698484 -0.51507343 3.33405638 0 0 Z " fill="#DF7853" transform="translate(120,232)"/>
<path d="M0 0 C0.66 0 1.32 0 2 0 C3.32 5.28 4.64 10.56 6 16 C1.7735669 13.18237793 1.19070951 9.7959133 0 5 C-0.1875 1.9375 -0.1875 1.9375 0 0 Z " fill="#D87254" transform="translate(145,245)"/>
<path d="M0 0 C0.60585937 0.12117187 1.21171875 0.24234375 1.8359375 0.3671875 C3.09277344 0.61855469 3.09277344 0.61855469 4.375 0.875 C7.21354167 1.44270833 10.05208333 2.01041667 12.890625 2.578125 C14.24414062 2.84882813 14.24414062 2.84882813 15.625 3.125 C17.8125 3.5625 17.8125 3.5625 20 4 C20 4.33 20 4.66 20 5 C12.40429561 5.58179863 6.85884959 4.26889853 0 1 C0 0.67 0 0.34 0 0 Z " fill="#E4785D" transform="translate(246,206)"/>
<path d="M0 0 C0.33 0 0.66 0 1 0 C1.03738281 1.05058594 1.07476562 2.10117188 1.11328125 3.18359375 C1.45493759 10.96113653 2.00662248 17.71177647 5 25 C4.01 25 3.02 25 2 25 C1.855625 23.865625 1.71125 22.73125 1.5625 21.5625 C1.38828522 18.19222799 1.38828522 18.19222799 0 17 C-0.07325168 14.13732433 -0.09238205 11.299281 -0.0625 8.4375 C-0.05798828 7.63119141 -0.05347656 6.82488281 -0.04882812 5.99414062 C-0.03700518 3.99606244 -0.01906914 1.99802217 0 0 Z " fill="#E64717" transform="translate(209,184)"/>
<path d="M0 0 C3.96 0 7.92 0 12 0 C8.45429137 1.77285431 5.56675327 2.71229813 1.75 3.625 C0.13351563 4.01558594 0.13351563 4.01558594 -1.515625 4.4140625 C-2.33546875 4.60742188 -3.1553125 4.80078125 -4 5 C-4.33 4.34 -4.66 3.68 -5 3 C-3.35 3 -1.7 3 0 3 C0 2.01 0 1.02 0 0 Z " fill="#E7704B" transform="translate(214,116)"/>
<path d="M0 0 C4.33458585 -0.26270217 7.92532275 0.51117562 12 2 C12.33 2.99 12.66 3.98 13 5 C10 6 10 6 7.51953125 5.00390625 C6.62621094 4.52824219 5.73289063 4.05257813 4.8125 3.5625 C3.91144531 3.08941406 3.01039063 2.61632812 2.08203125 2.12890625 C1.39496094 1.75636719 0.70789063 1.38382812 0 1 C0 0.67 0 0.34 0 0 Z " fill="#E07150" transform="translate(187,336)"/>
<path d="M0 0 C1.98 0.66 3.96 1.32 6 2 C6 3.65 6 5.3 6 7 C7.32 7 8.64 7 10 7 C9.67 7.66 9.34 8.32 9 9 C8.01 9 7.02 9 6 9 C4.39453125 7.28515625 4.39453125 7.28515625 2.8125 5.0625 C2.28269531 4.33160156 1.75289062 3.60070312 1.20703125 2.84765625 C0 1 0 1 0 0 Z " fill="#E67150" transform="translate(143,297)"/>
<path d="M0 0 C2.4375 1.375 2.4375 1.375 4 3 C4 3.66 4 4.32 4 5 C2.68 4.67 1.36 4.34 0 4 C0 3.34 0 2.68 0 2 C-3.63 2.33 -7.26 2.66 -11 3 C-8.91945956 -1.16108089 -4.07605237 -0.28603876 0 0 Z " fill="#DA6F56" transform="translate(222,245)"/>
<path d="M0 0 C5.1373167 0.40007422 10.3356447 1.82330086 15 4 C11.09366863 5.30211046 8.80461827 4.47812346 4.8125 3.5625 C3.54019531 3.27503906 2.26789063 2.98757812 0.95703125 2.69140625 C-0.01878906 2.46324219 -0.99460937 2.23507813 -2 2 C-1.34 1.34 -0.68 0.68 0 0 Z " fill="#E2795F" transform="translate(263,159)"/>
<path d="M0 0 C0.99 0 1.98 0 3 0 C3.33 0.99 3.66 1.98 4 3 C5.49985609 4.66710346 5.49985609 4.66710346 7 6 C5.20620902 5.55005243 3.41501072 5.08975857 1.625 4.625 C0.62726563 4.36976563 -0.37046875 4.11453125 -1.3984375 3.8515625 C-4 3 -4 3 -6 1 C-3.03 1.495 -3.03 1.495 0 2 C0 1.34 0 0.68 0 0 Z " fill="#E97953" transform="translate(205,341)"/>
<path d="M0 0 C0 0.66 0 1.32 0 2 C-3.90028225 4.60018816 -7.47434569 4.15085514 -12 4 C-4 -1.33333333 -4 -1.33333333 0 0 Z " fill="#E37355" transform="translate(303,316)"/>
<path d="M0 0 C0.66 0 1.32 0 2 0 C1.67 1.32 1.34 2.64 1 4 C0.34 4 -0.32 4 -1 4 C-1 4.66 -1 5.32 -1 6 C-1.66 6 -2.32 6 -3 6 C-3.33 6.99 -3.66 7.98 -4 9 C-4.66 9 -5.32 9 -6 9 C-6.33 9.66 -6.66 10.32 -7 11 C-7.33 10.01 -7.66 9.02 -8 8 C-7.01 8 -6.02 8 -5 8 C-5 7.01 -5 6.02 -5 5 C-4.34 5 -3.68 5 -3 5 C-2.690625 4.360625 -2.38125 3.72125 -2.0625 3.0625 C-1 1 -1 1 0 0 Z " fill="#E37C61" transform="translate(348,308)"/>
<path d="M0 0 C0 1.32 0 2.64 0 4 C-3.98196457 5.05404945 -6.98195309 4.84098656 -11 4 C-7.88789178 0.88789178 -4.34860953 0 0 0 Z " fill="#E5724D" transform="translate(291,320)"/>
<path d="M0 0 C0.66 0.33 1.32 0.66 2 1 C1.54965877 2.62723299 1.08944646 4.25173664 0.625 5.875 C0.36976563 6.77992188 0.11453125 7.68484375 -0.1484375 8.6171875 C-1 11 -1 11 -3 13 C-3.27429625 7.60550707 -3.36055646 4.48074195 0 0 Z " fill="#E56742" transform="translate(214,170)"/>
<path d="M0 0 C0.33 0 0.66 0 1 0 C0.51219512 7.31707317 0.51219512 7.31707317 -1.875 10.5 C-4 12 -4 12 -7 12 C-7 11.01 -7 10.02 -7 9 C-6.01 8.67 -5.02 8.34 -4 8 C-1.72382347 5.46118772 -0.59887408 3.35369486 0 0 Z " fill="#E07655" transform="translate(375,164)"/>
<path d="M0 0 C0.721875 0.144375 1.44375 0.28875 2.1875 0.4375 C3.5796875 0.7159375 3.5796875 0.7159375 5 1 C6.66666667 1.33333333 8.33333333 1.66666667 10 2 C9.67 2.99 9.34 3.98 9 5 C4.98525763 5 3.18024863 3.33218233 0 1 C0 0.67 0 0.34 0 0 Z " fill="#E67152" transform="translate(328,146)"/>
<path d="M0 0 C1.53445094 3.06890187 0.54984289 5.70094266 0 9 C-1.65 9.33 -3.3 9.66 -5 10 C-5 6.60406522 -4.47834052 5.93380119 -2.5 3.3125 C-2.0359375 2.68988281 -1.571875 2.06726563 -1.09375 1.42578125 C-0.7328125 0.95527344 -0.371875 0.48476563 0 0 Z " fill="#EB7F61" transform="translate(342,276)"/>
<path d="M0 0 C3.99455527 0.61454696 6.74466336 2.70646737 10 5 C9.01 5.66 8.02 6.32 7 7 C6.67 6.01 6.34 5.02 6 4 C4.35 4 2.7 4 1 4 C0.67 2.68 0.34 1.36 0 0 Z " fill="#E0794E" transform="translate(314,104)"/>
<path d="M0 0 C3.96 0 7.92 0 12 0 C8.52735662 2.31509559 6.11592992 2.62582455 2 3 C1.34 2.67 0.68 2.34 0 2 C0 1.34 0 0.68 0 0 Z " fill="#E3633F" transform="translate(276,347)"/>
<path d="M0 0 C0.33 0.66 0.66 1.32 1 2 C-2.625 7.75 -2.625 7.75 -6 10 C-5.35389319 6.51102321 -3.98128683 3.93230451 -2 1 C-1.34 0.67 -0.68 0.34 0 0 Z " fill="#DE826E" transform="translate(290,261)"/>
<path d="M0 0 C7.57142857 4.14285714 7.57142857 4.14285714 10 7 C8 8 8 8 6 7.875 C4 7 4 7 2.75 4.4375 C2.5025 3.633125 2.255 2.82875 2 2 C1.34 2 0.68 2 0 2 C0 1.34 0 0.68 0 0 Z " fill="#DF6646" transform="translate(324,110)"/>
<path d="M0 0 C0 0.33 0 0.66 0 1 C2.97 1.495 2.97 1.495 6 2 C6 2.33 6 2.66 6 3 C0.47322267 3.19392201 -3.75614911 2.7479503 -9 1 C-9 0.67 -9 0.34 -9 0 C-3.375 -1.125 -3.375 -1.125 0 0 Z " fill="#E17859" transform="translate(226,348)"/>
<path d="M0 0 C0.66 0 1.32 0 2 0 C1.67 3.63 1.34 7.26 1 11 C-0.99512373 7.00975253 -1.28727578 5.30913667 -1 1 C-0.67 0.67 -0.34 0.34 0 0 Z " fill="#E6613F" transform="translate(144,239)"/>
<path d="M0 0 C1.258125 0.12375 2.51625 0.2475 3.8125 0.375 C4.87404297 0.47941406 4.87404297 0.47941406 5.95703125 0.5859375 C8 1 8 1 11 3 C11 3.66 11 4.32 11 5 C9.53932801 4.54917531 8.08151968 4.08906463 6.625 3.625 C5.81289062 3.36976563 5.00078125 3.11453125 4.1640625 2.8515625 C2 2 2 2 0 0 Z " fill="#DE684D" transform="translate(222,275)"/>
<path d="M0 0 C0.66 0 1.32 0 2 0 C1.75 2.875 1.75 2.875 1 6 C-1 7.25 -1 7.25 -3 8 C-3.33 8.66 -3.66 9.32 -4 10 C-4 8.68 -4 7.36 -4 6 C-3.01 5.34 -2.02 4.68 -1 4 C-0.27617533 1.94074861 -0.27617533 1.94074861 0 0 Z " fill="#DF5736" transform="translate(291,254)"/>
<path d="M0 0 C1.98 0.99 1.98 0.99 4 2 C4 4.97 4 7.94 4 11 C1.54176828 7.31265242 0.98757384 4.30300029 0 0 Z " fill="#E98669" transform="translate(123,256)"/>
<path d="M0 0 C0.75 1.625 0.75 1.625 1 4 C-0.8125 7.25 -0.8125 7.25 -3 10 C-3.66 10 -4.32 10 -5 10 C-3.66511872 6.40608886 -2.03977277 3.24509304 0 0 Z " fill="#DB7B60" transform="translate(138,150)"/>
<path d="M0 0 C0.33 0 0.66 0 1 0 C1 3.96 1 7.92 1 12 C-0.65 12 -2.3 12 -4 12 C-3.67 10.68 -3.34 9.36 -3 8 C-2.34 8.66 -1.68 9.32 -1 10 C-0.67 6.7 -0.34 3.4 0 0 Z " fill="#EA9277" transform="translate(351,121)"/>
<path d="M0 0 C2.64 0.33 5.28 0.66 8 1 C5.64031256 3.09749995 4.45383006 3.96905704 1.25 4.1875 C0.13625 4.0946875 0.13625 4.0946875 -1 4 C-0.67 2.68 -0.34 1.36 0 0 Z " fill="#EE4917" transform="translate(224,112)"/>
<path d="M0 0 C0.99 0.33 1.98 0.66 3 1 C3 1.66 3 2.32 3 3 C3.66 3 4.32 3 5 3 C5 3.66 5 4.32 5 5 C5.66 5 6.32 5 7 5 C7 6.65 7 8.3 7 10 C4.20127563 7.47211993 2.54226981 5.79588866 2 2 C1.34 2 0.68 2 0 2 C0 1.34 0 0.68 0 0 Z " fill="#E27E5C" transform="translate(136,287)"/>
<path d="M0 0 C2.5 2.3125 2.5 2.3125 5 5 C5 5.99 5 6.98 5 8 C4.01 8.33 3.02 8.66 2 9 C1.34 6.03 0.68 3.06 0 0 Z " fill="#E67E59" transform="translate(285,221)"/>
<path d="M0 0 C0.66 0 1.32 0 2 0 C2.4125 0.61875 2.825 1.2375 3.25 1.875 C5.51154594 4.62116292 7.62074896 5.09886639 11 6 C8.5332355 6.88336837 7.36140628 7.1312406 4.859375 6.22265625 C4.16328125 5.83980469 3.4671875 5.45695313 2.75 5.0625 C2.04359375 4.68222656 1.3371875 4.30195313 0.609375 3.91015625 C0.07828125 3.60980469 -0.4528125 3.30945313 -1 3 C-0.67 2.01 -0.34 1.02 0 0 Z " fill="#E37D62" transform="translate(226,220)"/>
<path d="M0 0 C1.48199902 0.44909061 2.96055236 0.90956564 4.4375 1.375 C5.26121094 1.63023438 6.08492188 1.88546875 6.93359375 2.1484375 C9 3 9 3 10 5 C6.87709365 4.51421457 4.00419641 4.0013988 1 3 C0.67 2.01 0.34 1.02 0 0 Z " fill="#E08260" transform="translate(304,99)"/>
<path d="M0 0 C0.33 1.32 0.66 2.64 1 4 C0.01 4.33 -0.98 4.66 -2 5 C-2.33 5.99 -2.66 6.98 -3 8 C-3.99 7.67 -4.98 7.34 -6 7 C-4.625 5 -4.625 5 -3 3 C-2.34 3 -1.68 3 -1 3 C-0.67 2.01 -0.34 1.02 0 0 Z " fill="#D97B5B" transform="translate(335,286)"/>
<path d="M0 0 C2.72426311 2.35277269 3.8141763 4.62496331 5 8 C3.68 8 2.36 8 1 8 C0.67 5.36 0.34 2.72 0 0 Z " fill="#E4795C" transform="translate(161,279)"/>
<path d="M0 0 C0.66 0 1.32 0 2 0 C2.33 2.64 2.66 5.28 3 8 C1.68 7.01 0.36 6.02 -1 5 C-0.67 3.35 -0.34 1.7 0 0 Z " fill="#ED5E32" transform="translate(325,138)"/>
<path d="M0 0 C6.625 0.75 6.625 0.75 10 3 C8.02 3.99 8.02 3.99 6 5 C3.98079663 3.69593116 1.98075027 2.36176581 0 1 C0 0.67 0 0.34 0 0 Z " fill="#E76A4A" transform="translate(308,130)"/>
<path d="M0 0 C2.03833424 1.2739589 4.03852126 2.61061923 6 4 C6 4.66 6 5.32 6 6 C6.66 6 7.32 6 8 6 C7.67 6.66 7.34 7.32 7 8 C3.83282717 6.41641358 2.26731682 5.54736301 0.6875 2.3125 C0.460625 1.549375 0.23375 0.78625 0 0 Z " fill="#E1795B" transform="translate(334,117)"/>
<path d="M0 0 C-0.33 1.32 -0.66 2.64 -1 4 C-2.9375 3.6875 -2.9375 3.6875 -5 3 C-5.33 2.01 -5.66 1.02 -6 0 C-3.50907189 -1.24546405 -2.58919267 -0.7767578 0 0 Z " fill="#EE4A16" transform="translate(308,315)"/>
<path d="M0 0 C0.66 0.33 1.32 0.66 2 1 C0.875 2.9375 0.875 2.9375 -1 5 C-4.1875 5.75 -4.1875 5.75 -7 6 C-4.74259377 3.66475218 -2.7194239 1.81294927 0 0 Z " fill="#E68F78" transform="translate(309,309)"/>
<path d="M0 0 C1.32 0 2.64 0 4 0 C3.34 1.65 2.68 3.3 2 5 C1.01 5 0.02 5 -1 5 C-0.67 3.35 -0.34 1.7 0 0 Z " fill="#E7693F" transform="translate(358,293)"/>
<path d="M0 0 C0.99 0 1.98 0 3 0 C1.68775452 3.93673644 0.08089673 6.22719294 -3 9 C-2.67 7.35 -2.34 5.7 -2 4 C-1.34 4 -0.68 4 0 4 C0 2.68 0 1.36 0 0 Z " fill="#DF7B59" transform="translate(365,284)"/>
<path d="M0 0 C2.875 0.1875 2.875 0.1875 6 1 C7.375 3.5625 7.375 3.5625 8 6 C4.08597051 4.73058503 2.20927127 3.48832306 0 0 Z " fill="#E16C54" transform="translate(217,216)"/>
<path d="M0 0 C0.66 1.32 1.32 2.64 2 4 C1.01 4.99 0.02 5.98 -1 7 C-1.66 6.67 -2.32 6.34 -3 6 C-2.625 3.5625 -2.625 3.5625 -2 1 C-1.34 0.67 -0.68 0.34 0 0 Z " fill="#E66338" transform="translate(130,168)"/>
<path d="M0 0 C0.625 1.8125 0.625 1.8125 1 4 C0.01 5.485 0.01 5.485 -1 7 C-1.99 7 -2.98 7 -4 7 C-2.92598892 4.08482708 -2.22189824 2.22189824 0 0 Z " fill="#DF705B" transform="translate(149,135)"/>
<path d="M0 0 C0.33 0.99 0.66 1.98 1 3 C-0.9375 6.1875 -0.9375 6.1875 -3 9 C-3.66 8.67 -4.32 8.34 -5 8 C-2.25 2.25 -2.25 2.25 0 0 Z " fill="#E3582E" transform="translate(165,119)"/>
<path d="M0 0 C2.0625 0.4375 2.0625 0.4375 4 1 C4 1.66 4 2.32 4 3 C3.34 3 2.68 3 2 3 C1.34 4.32 0.68 5.64 0 7 C-0.38133299 5.0085944 -0.71325582 3.00720923 -1 1 C-0.67 0.67 -0.34 0.34 0 0 Z " fill="#F54717" transform="translate(361,285)"/>
<path d="M0 0 C2.31 0 4.62 0 7 0 C7 0.66 7 1.32 7 2 C5.68 1.67 4.36 1.34 3 1 C3 1.66 3 2.32 3 3 C1.68 3 0.36 3 -1 3 C-0.67 2.01 -0.34 1.02 0 0 Z " fill="#F4491C" transform="translate(222,165)"/>
<path d="M0 0 C3.68754757 0.49831724 5.60490662 1.10067643 8 4 C7.01 4.495 7.01 4.495 6 5 C3.98079663 3.69593116 1.98075027 2.36176581 0 1 C0 0.67 0 0.34 0 0 Z " fill="#E07A5D" transform="translate(173,327)"/>
<path d="M0 0 C0.66 0.66 1.32 1.32 2 2 C1.67028521 5.29714793 1.3773161 6.6226839 -1 9 C-1.125 2.25 -1.125 2.25 0 0 Z " fill="#E46A4D" transform="translate(259,288)"/>
<path d="M0 0 C3.73639216 1.24546405 4.18756513 2.63404953 6 6 C4.68 6 3.36 6 2 6 C1.34 5.34 0.68 4.68 0 4 C0 2.68 0 1.36 0 0 Z " fill="#F04C15" transform="translate(129,267)"/>
<path d="M0 0 C0.66 0 1.32 0 2 0 C2 0.66 2 1.32 2 2 C2.66 2 3.32 2 4 2 C3.67 3.65 3.34 5.3 3 7 C2.34 7 1.68 7 1 7 C1.33 5.68 1.66 4.36 2 3 C1.34 3 0.68 3 0 3 C0 2.01 0 1.02 0 0 Z " fill="#E75D32" transform="translate(280,266)"/>
</svg>
